<!DOCTYPE svg PUBLIC "-//W3C//DTD SVG 1.1//EN" "http://www.w3.org/Graphics/SVG/1.1/DTD/svg11.dtd">
<!-- Uploaded to: SVG Repo, www.svgrepo.com, Transformed by: SVG Repo Mixer Tools -->
<svg height="800px" width="800px" version="1.1" id="_x32_" xmlns="http://www.w3.org/2000/svg" xmlns:xlink="http://www.w3.org/1999/xlink" viewBox="-51.2 -51.2 614.40 614.40" xml:space="preserve" fill="#eeff00" stroke="#eeff00" stroke-width="0.00512">
<g id="SVGRepo_bgCarrier" stroke-width="0" transform="translate(76.80000000000001,76.80000000000001), scale(0.7)">
<path transform="translate(-51.2, -51.2), scale(19.2)" d="M16,28.423494431683245C19.178390180151045,28.35434684785485,22.559160355210278,28.753049240612818,25.117798138700625,26.86616868834527C27.767720794512208,24.91196963894203,28.82101530521088,21.597422104592248,29.59568580209605,18.39728622814454C30.427160185375694,14.962495546197541,31.686847074760998,11.00801682699725,29.656933075739897,8.115166012416871C27.65546618768512,5.26285546120286,23.455762147901513,5.639831452780566,20.068952957139242,4.8206436294368284C17.194877492858463,4.1254737833966075,14.44170217789125,3.190327610665514,11.534757423851278,3.7318468496440005C8.09614152987043,4.372408270517235,3.8279505126033877,4.949314071151065,2.3529386768672182,8.120865471441949C0.8800207731640393,11.287914526117394,4.173948404205241,14.541528980413096,4.9205622943898994,17.953603798577745C5.615340832656085,21.128787632932845,4.180738737626951,25.03785849067717,6.543119945886202,27.270270779222635C8.922996184252714,29.519215590149916,12.726394721264207,28.49471347107183,16,28.423494431683245" fill="#ff0000" strokewidth="0"/>
</g>
<g id="SVGRepo_tracerCarrier" stroke-linecap="round" stroke-linejoin="round"/>
<g id="SVGRepo_iconCarrier"> <style type="text/css"> .st0{fill:#000000;} </style> <g> <path class="st0" d="M437.506,127.916c16.857-10.821,28.094-29.6,28.094-51.116c0-33.58-27.221-60.8-60.8-60.8 c-17.9,0-33.832,7.873-44.958,20.189C336.705,23.537,304.863,16,256,16s-80.705,7.537-103.842,20.189 C141.032,23.873,125.099,16,107.2,16c-33.579,0-60.8,27.22-60.8,60.8c0,21.516,11.237,40.295,28.094,51.116 C42.694,175.989,0,244.327,0,320.389C0,414.053,97.105,496,256,496s256-81.947,256-175.61 C512,244.327,469.304,175.989,437.506,127.916z M168.932,259.989c-13.4,0-24.264-10.863-24.264-24.264 c0-13.399,10.863-24.263,24.264-24.263c13.399,0,24.262,10.864,24.262,24.263C193.194,249.126,182.331,259.989,168.932,259.989z M246.152,419.747h-35.058l-11.69-65.095h46.747V419.747z M200.532,297.6c0-14.138,24.837-25.6,55.474-25.6 c30.626,0,55.463,11.462,55.463,25.6c0,14.137-24.837,25.6-55.463,25.6C225.368,323.2,200.532,311.737,200.532,297.6z M300.894,419.747h-35.058v-65.095h46.742L300.894,419.747z M343.068,259.989c-13.399,0-24.263-10.863-24.263-24.264 c0-13.399,10.864-24.263,24.263-24.263c13.4,0,24.264,10.864,24.264,24.263C367.332,249.126,356.468,259.989,343.068,259.989z"/> </g> </g>
</svg>